# xmcd
#
# Track frame offsets:
#	150
#	13642
#	32960
#	52726
#	72171
#	87932
#	103939
#	122892
#	139201
#	159707
#
# Disc length: 2336
#
# Revision: 1
# Processed by: cddbd v1.5.1PL0 Copyright (c) Steve Scherf et al.
# Submitted via: dBpowerAMP V4.0
# Normalized: r0:DSETVAR1
#
DISCID=87091e0a
DTITLE=Various Artist - Pure Guitar Moods Disc 2
DYEAR=1900
DGENRE=Slow Rock
TTITLE0=UB40 - I got you babe
TTITLE1=Stevie Wonder - I just called to say I love you
TTITLE2=Foreigner - I want to know what love is
TTITLE3=Sting - If you love somebody Set them free
TTITLE4=Groover Washington - Just the two of us
TTITLE5=Marillion - Kayleigh
TTITLE6=Chris De Burgh - Lady In Red
TTITLE7=Tina Turner - Lets stay together
TTITLE8=Janet Jackson - Lets Wait a while
TTITLE9=Madonna - Like  a virgin
EXTD=
EXTT0=
EXTT1=
EXTT2=
EXTT3=
EXTT4=
EXTT5=
EXTT6=
EXTT7=
EXTT8=
EXTT9=
PLAYORDER=
